<?xml version="1.0" encoding="utf-8"?>
<!-- Generator: Adobe Illustrator 17.1.0, SVG Export Plug-In . SVG Version: 6.00 Build 0)  -->
<!DOCTYPE svg PUBLIC "-//W3C//DTD SVG 1.1//EN" "http://www.w3.org/Graphics/SVG/1.1/DTD/svg11.dtd">
<svg version="1.1" id="Layer_1" xmlns="http://www.w3.org/2000/svg" xmlns:xlink="http://www.w3.org/1999/xlink" x="0px" y="0px"
	 viewBox="0 0 16 16" enable-background="new 0 0 16 16" xml:space="preserve">
<path fill="#49A8D5" d="M15.5,7.5H9.2L13.7,3c0.2-0.2,0.2-0.5,0-0.7s-0.5-0.2-0.7,0L8.5,6.8V0.5C8.5,0.2,8.3,0,8,0S7.5,0.2,7.5,0.5
	v6.3L3.1,2.3c-0.2-0.2-0.5-0.2-0.7,0C2.1,2.5,2.1,2.9,2.3,3l4.4,4.5H0.5C0.2,7.5,0,7.7,0,8s0.2,0.5,0.5,0.5h6.3L2.3,13
	c-0.2,0.2-0.2,0.5,0,0.7c0.1,0.1,0.2,0.1,0.4,0.1s0.3,0,0.4-0.1l4.4-4.5v6.3C7.5,15.8,7.7,16,8,16s0.5-0.2,0.5-0.5V9.2l4.4,4.5
	c0.1,0.1,0.2,0.1,0.4,0.1s0.3,0,0.4-0.1c0.2-0.2,0.2-0.5,0-0.7L9.2,8.5h6.3C15.8,8.5,16,8.3,16,8S15.8,7.5,15.5,7.5z"/>
</svg>
