<?xml version="1.0" encoding="utf-8"?>
<!-- Generator: Adobe Illustrator 17.1.0, SVG Export Plug-In . SVG Version: 6.00 Build 0)  -->
<!DOCTYPE svg PUBLIC "-//W3C//DTD SVG 1.1//EN" "http://www.w3.org/Graphics/SVG/1.1/DTD/svg11.dtd">
<svg version="1.1" id="Layer_1" xmlns="http://www.w3.org/2000/svg" xmlns:xlink="http://www.w3.org/1999/xlink" x="0px" y="0px"
	 viewBox="7.8 0 48.4 48" enable-background="new 7.8 0 48.4 48" xml:space="preserve">
<g>
	<g>
		<path fill="#2CAA63" d="M56.2,36.7c0,0-1.6,8.9-9.1,8.9h-9.5c0,0,5,2.4,8.9,2.4C55.4,48,56.2,36.7,56.2,36.7L56.2,36.7z"/>
	</g>
	<g>
		<path fill="#2CAA63" d="M7.8,36.7c0,0,1.6,8.9,9.1,8.9h9.5c0,0-5,2.4-8.9,2.4C8.6,48,7.8,36.7,7.8,36.7L7.8,36.7z"/>
	</g>
	<g>
		<path fill="#2CAA63" d="M46.7,2c3,0,5.4,2.4,5.4,5.4v29.2c0,3-2.4,5.4-5.4,5.4H17.5c-3,0-5.4-2.4-5.4-5.4V7.3c0-3,2.4-5.4,5.4-5.4
			H46.7 M46.7,0H17.5c-4,0-7.3,3.2-7.3,7.3v29.2c0,4,3.2,7.3,7.3,7.3h29.2c4,0,7.3-3.2,7.3-7.3V7.3C53.8,3.2,50.6,0,46.7,0L46.7,0z"
			/>
		<path fill="#2CAA63" d="M32,36.7c-8.1,0-14.9-6.7-14.9-14.9S23.9,6.9,32,6.9s14.9,6.7,14.9,14.9S40.1,36.7,32,36.7z M32,8.9
			c-7.1,0-12.9,5.8-12.9,12.9S24.9,34.7,32,34.7S44.9,29,44.9,21.8S39.1,8.9,32,8.9z"/>
	</g>
</g>
</svg>
