<?xml version="1.0" encoding="utf-8"?>
<!-- Generator: Adobe Illustrator 17.1.0, SVG Export Plug-In . SVG Version: 6.00 Build 0)  -->
<!DOCTYPE svg PUBLIC "-//W3C//DTD SVG 1.1//EN" "http://www.w3.org/Graphics/SVG/1.1/DTD/svg11.dtd">
<svg version="1.1" id="Layer_1" xmlns="http://www.w3.org/2000/svg" xmlns:xlink="http://www.w3.org/1999/xlink" x="0px" y="0px"
	 viewBox="9 0 45.9 48" enable-background="new 9 0 45.9 48" xml:space="preserve">
<g>
	<path fill="#EF6624" d="M32,48c-11,0-23-3.2-23-9.4c0-0.7,0.5-1.1,1.1-1.1c0.7,0,1.1,0.5,1.1,1.1c0,3.2,8.5,7.1,20.7,7.1
		s20.7-3.7,20.7-7.1c0-0.7,0.5-1.1,1.1-1.1c0.7,0,1.1,0.5,1.1,1.1C55,44.6,43,48,32,48z"/>
	<path fill="#EF6624" d="M32,38.1c-11,0-23-3.2-23-9.4c0-0.5,0.5-1.1,1.1-1.1c0.7,0,1.1,0.7,1.1,1.1c0,3.2,8.5,7.1,20.7,7.1
		s20.7-3.7,20.7-7.1c0-0.7,0.5-1.1,1.1-1.1c0.7,0,1.1,0.5,1.1,1.1C55,34.9,43,38.1,32,38.1z"/>
	<path fill="#EF6624" d="M32,28.5c-11,0-23-3.2-23-9.4c0-0.7,0.5-1.1,1.1-1.1c0.7,0,1.1,0.5,1.1,1.1c0,3.2,8.5,7.1,20.7,7.1
		s20.7-3.7,20.7-7.1c0-0.7,0.5-1.1,1.1-1.1c0.7,0,1.1,0.5,1.1,1.1C55,25,43,28.5,32,28.5z"/>
	<path fill="#EF6624" d="M32,18.6c-11.3,0-23-3.2-23-9.2S20.7,0,32,0c11,0,23,3.2,23,9.4S43,18.6,32,18.6z M32,2.3
		C19.8,2.3,11.3,6,11.3,9.4s8.5,7.1,20.7,7.1s20.7-3.7,20.7-7.1S44.2,2.3,32,2.3z"/>
</g>
</svg>
