<?xml version="1.0" encoding="utf-8"?>
<!-- Generator: Adobe Illustrator 17.1.0, SVG Export Plug-In . SVG Version: 6.00 Build 0)  -->
<!DOCTYPE svg PUBLIC "-//W3C//DTD SVG 1.1//EN" "http://www.w3.org/Graphics/SVG/1.1/DTD/svg11.dtd">
<svg version="1.1" id="Layer_1" xmlns="http://www.w3.org/2000/svg" xmlns:xlink="http://www.w3.org/1999/xlink" x="0px" y="0px"
	 viewBox="3.1 0 58.1 48" enable-background="new 3.1 0 58.1 48" xml:space="preserve">
<g>
	<path fill="#01786E" d="M60.9,32H15.1c-6.7,0-12-5.3-12-12c0-6.9,5.9-12.5,12.8-12c3.5-5.1,8.8-8,14.9-8c6.4,0,12.5,3.5,15.7,8.8
		c8-0.3,14.7,6.1,14.7,14.4V32H60.9z M5.7,20c0,5.3,4.3,9.6,9.3,9.6h43.2v-6.4c0-6.1-5.1-12.3-13.3-11.5c-3.2-6.4-8.5-9.1-14.1-9.1
		c-5.3,0-10.1,2.4-13.6,8C9.7,9.9,5.7,14.9,5.7,20z"/>
	<path fill="#01786E" d="M15.1,45.3c-2.7,0-5.1-1.3-6.9-3.2c0,0-0.8-1.3-2.1-1.3c-1.9,0-1.1,1.3-1.1,1.3c2.1,3.7,5.9,5.9,10.1,5.9
		h45.9v-2.7H15.1z"/>
	<path fill="#01786E" d="M15.1,37.3c-2.7,0-5.1-1.3-6.9-3.2c0,0-0.8-1.3-2.1-1.3c-1.9,0-1.1,1.3-1.1,1.3c2.1,3.7,5.9,5.9,10.1,5.9
		h45.9v-2.7H15.1z"/>
</g>
</svg>
