<?xml version="1.0" encoding="iso-8859-1"?>
<!-- Generator: Adobe Illustrator 17.1.0, SVG Export Plug-In . SVG Version: 6.00 Build 0)  -->
<!DOCTYPE svg PUBLIC "-//W3C//DTD SVG 1.1//EN" "http://www.w3.org/Graphics/SVG/1.1/DTD/svg11.dtd">
<svg version="1.1" xmlns="http://www.w3.org/2000/svg" xmlns:xlink="http://www.w3.org/1999/xlink" x="0px" y="0px"
	 viewBox="0 0 975.166 415" style="enable-background:new 0 0 975.166 415;" xml:space="preserve">
<symbol  id="app2_1_" viewBox="-36.698 -36.698 73.396 73.396">
	<path style="fill:#213039;" d="M36.65,1.91C37.754-19.866,19.866-37.753-1.909-36.65c-18.645,0.945-33.795,16.095-34.74,34.74
		C-37.752,19.866-19.865,37.753,1.911,36.65C20.556,35.705,35.706,20.555,36.65,1.91z"/>
	<path style="opacity:0.5;fill:#2CAA63;" d="M-2.994,14.991c0.428,0,0.787-0.147,1.08-0.436c0.298-0.298,0.44-0.644,0.44-1.044
		V3.007c0-0.432-0.143-0.787-0.44-1.064c-0.294-0.281-0.652-0.42-1.08-0.42h-13.472c-0.424,0-0.787,0.139-1.085,0.42
		c-0.289,0.277-0.436,0.632-0.436,1.064v10.503c0,0.4,0.147,0.746,0.436,1.044c0.298,0.289,0.661,0.436,1.085,0.436H-2.994z
		 M-2.994-1.482c0.428,0,0.787-0.147,1.08-0.44c0.298-0.294,0.44-0.657,0.44-1.085v-10.459c0-0.432-0.143-0.795-0.44-1.085
		c-0.294-0.294-0.652-0.44-1.08-0.44h-13.472c-0.424,0-0.787,0.147-1.085,0.44c-0.289,0.289-0.436,0.652-0.436,1.085v10.459
		c0,0.428,0.147,0.791,0.436,1.085c0.298,0.294,0.661,0.44,1.085,0.44H-2.994z M16.504,14.991c0.404,0,0.754-0.147,1.044-0.436
		c0.294-0.298,0.44-0.644,0.44-1.044V3.007c0-0.432-0.147-0.787-0.44-1.064c-0.289-0.281-0.64-0.42-1.044-0.42H2.996
		c-0.428,0-0.783,0.139-1.06,0.42C1.65,2.22,1.512,2.575,1.512,3.007v10.503c0,0.4,0.139,0.746,0.424,1.044
		c0.277,0.289,0.632,0.436,1.06,0.436H16.504z M16.504-1.482c0.404,0,0.754-0.147,1.044-0.44c0.294-0.294,0.44-0.657,0.44-1.085
		v-10.459c0-0.432-0.147-0.795-0.44-1.085c-0.289-0.294-0.64-0.44-1.044-0.44H2.996c-0.428,0-0.783,0.147-1.06,0.44
		c-0.285,0.289-0.424,0.652-0.424,1.085v10.459c0,0.428,0.139,0.791,0.424,1.085c0.277,0.294,0.632,0.44,1.06,0.44H16.504z"/>
</symbol>
<symbol  id="cloud2_1_" viewBox="-38.684 -38.684 77.368 77.368">
	<g id="app2_3_">
		<path style="fill:#213039;" d="M38.633,2.013c1.163-22.954-17.692-41.809-40.646-40.646c-19.654,0.996-35.624,16.966-36.62,36.62
			C-39.796,20.94-20.94,39.796,2.013,38.633C21.667,37.637,37.637,21.667,38.633,2.013z"/>
	</g>
	<path style="opacity:0.5;fill:#2F938B;" d="M14.768,2.291c1.692-0.853,3.058-2.082,4.092-3.688c1.034-1.611,1.556-3.403,1.556-5.39
		c0-1.416-0.268-2.74-0.808-3.974c-0.535-1.229-1.266-2.314-2.2-3.249c-0.939-0.93-2.019-1.665-3.248-2.205
		c-1.229-0.531-2.554-0.803-3.974-0.803h-22.113c-1.157,0-2.255,0.223-3.289,0.667c-1.034,0.436-1.942,1.048-2.718,1.819
		c-0.771,0.78-1.379,1.684-1.819,2.723c-0.445,1.03-0.662,2.123-0.662,3.285c0,1.016,0.168,1.973,0.508,2.88
		c0.34,0.903,0.808,1.724,1.402,2.464c0.594,0.735,1.293,1.361,2.096,1.869c0.803,0.503,1.674,0.871,2.618,1.107
		c-0.481,0.594-0.848,1.243-1.112,1.955c-0.259,0.708-0.386,1.465-0.386,2.282c0,0.953,0.177,1.842,0.531,2.668
		c0.354,0.826,0.835,1.542,1.443,2.15c0.608,0.608,1.325,1.093,2.151,1.447c0.826,0.354,1.715,0.531,2.672,0.531
		c1.633,0,3.053-0.522,4.256-1.566c0.263,1.098,0.708,2.123,1.334,3.071c0.631,0.948,1.379,1.769,2.241,2.468
		c0.862,0.694,1.819,1.234,2.885,1.624c1.066,0.394,2.205,0.589,3.421,0.589c1.388,0,2.709-0.267,3.952-0.802
		c1.248-0.54,2.332-1.266,3.248-2.183c0.921-0.917,1.647-2.005,2.182-3.248c0.535-1.243,0.803-2.559,0.803-3.952
		c0-0.825-0.091-1.619-0.281-2.377C15.362,3.698,15.099,2.972,14.768,2.291"/>
</symbol>
<symbol  id="data2_1_" viewBox="-88.12 -88.122 176.241 176.241">
	<path style="fill:#213039;" d="M88.005,4.585c2.65-52.288-40.302-95.24-92.59-92.59c-44.771,2.269-81.15,38.648-83.419,83.419
		c-2.65,52.288,40.302,95.24,92.59,92.59C49.358,85.734,85.736,49.356,88.005,4.585z"/>
	<path style="opacity:0.5;fill:#EF6624;" d="M23.467,38.39c2.203,0,4.208-0.679,6.045-2.016c1.838-1.336,3.08-3.049,3.748-5.147
		L45.153-5.107c0.209-0.774,0.407-1.524,0.616-2.266c0.188-0.762,0.292-1.514,0.292-2.287v-19.086c0-1.368-0.251-2.631-0.773-3.801
		c-0.522-1.169-1.19-2.172-2.046-3.028c-0.867-0.845-1.869-1.535-3.049-2.046c-1.19-0.523-2.433-0.772-3.727-0.772h-72.878
		c-2.662,0-4.938,0.939-6.818,2.818c-1.89,1.88-2.829,4.156-2.829,6.829V-9.66c0,0.772,0.104,1.524,0.303,2.287
		c0.209,0.742,0.397,1.492,0.595,2.266l11.892,36.334c0.668,2.098,1.932,3.811,3.79,5.147c1.827,1.337,3.874,2.016,6.066,2.016
		H23.467z M38.418-9.66c0,0.533-0.198,1.002-0.585,1.378c-0.376,0.386-0.835,0.575-1.368,0.575h-72.878
		c-0.532,0-0.992-0.177-1.368-0.543c-0.386-0.366-0.585-0.836-0.585-1.41v-19.086c0-0.533,0.188-1.002,0.553-1.378
		c0.365-0.386,0.835-0.585,1.399-0.585h72.878c0.532,0,0.992,0.187,1.368,0.553c0.386,0.366,0.585,0.835,0.585,1.41V-9.66z
		 M-23.413,30.674c-0.543,0-1.065-0.157-1.587-0.491c-0.501-0.345-0.856-0.774-1.013-1.305L-35.42-0.013h70.831l-9.397,28.891
		c-0.136,0.531-0.459,0.96-0.971,1.305c-0.512,0.334-1.034,0.491-1.577,0.491H-23.413z M11.564-14.452
		c1.305,0,2.412-0.46,3.331-1.379c0.919-0.918,1.368-2.025,1.368-3.32c0-1.368-0.449-2.506-1.368-3.425
		c-0.919-0.918-2.026-1.378-3.331-1.378c-1.368,0-2.506,0.46-3.425,1.378c-0.919,0.919-1.368,2.057-1.368,3.425
		c0,1.295,0.449,2.402,1.368,3.32C9.058-14.912,10.196-14.452,11.564-14.452 M26.923-14.452c1.295,0,2.401-0.46,3.32-1.379
		c0.908-0.918,1.368-2.025,1.368-3.32c0-1.368-0.459-2.506-1.368-3.425c-0.919-0.918-2.026-1.378-3.32-1.378
		c-1.368,0-2.506,0.46-3.425,1.378c-0.919,0.919-1.378,2.057-1.378,3.425c0,1.295,0.459,2.402,1.378,3.32
		C24.417-14.912,25.555-14.452,26.923-14.452"/>
</symbol>
<g id="Layer_3">
	<g id="header">
		<g>
			<path style="fill:#10506B;" d="M633.465,208.894"/>
			
				<use xlink:href="#app2_1_"  width="73.396" height="73.396" x="-36.698" y="-36.698" transform="matrix(0.4333 0 0 -0.4333 250.4509 46.1082)" style="overflow:visible;"/>
			
				<use xlink:href="#app2_1_"  width="73.396" height="73.396" id="XMLID_7_" x="-36.698" y="-36.698" transform="matrix(0.4333 0 0 -0.4333 268.1331 369.3885)" style="overflow:visible;"/>
			
				<use xlink:href="#data2_1_"  width="176.241" height="176.241" id="XMLID_6_" x="-88.12" y="-88.122" transform="matrix(0.4333 0 0 -0.4333 355.1795 45.684)" style="overflow:visible;"/>
			
				<use xlink:href="#data2_1_"  width="176.241" height="176.241" id="XMLID_5_" x="-88.12" y="-88.122" transform="matrix(0.1947 0 0 -0.1947 547.8 85.238)" style="overflow:visible;"/>
			
				<use xlink:href="#data2_1_"  width="176.241" height="176.241" id="XMLID_4_" x="-88.12" y="-88.122" transform="matrix(0.1947 0 0 -0.1947 714.0417 369.3886)" style="overflow:visible;"/>
			
				<use xlink:href="#cloud2_1_"  width="77.368" height="77.368" id="XMLID_3_" x="-38.684" y="-38.684" transform="matrix(0.4333 0 0 -0.4333 419.2695 102.0004)" style="overflow:visible;"/>
			
				<use xlink:href="#cloud2_1_"  width="77.368" height="77.368" x="-38.684" y="-38.684" transform="matrix(0.4333 0 0 -0.4333 692.5475 45.684)" style="overflow:visible;"/>
			
				<use xlink:href="#cloud2_1_"  width="77.368" height="77.368" id="XMLID_2_" x="-38.684" y="-38.684" transform="matrix(0.9852 0 0 -0.9852 481.7315 369.3882)" style="overflow:visible;"/>
			<g>
				<g>
					<g style="opacity:0.25;">
						<path style="fill:#223640;" d="M255.767,79.013L164.63,96.466l-52.451,49.165l77.157,7.286L255.767,79.013z M412.835,164.168
							l-53.37-9.56l-34.47,20.837l-34.745,43.783l77.586,14.691L412.835,164.168z M374.121,327.275h82.653l1.369-124.678
							L374.121,327.275z M149.446,197.999l-34.482,71.104l20.833,58.173l29.246-78.122L149.446,197.999z M287.915,327.275
							l-58.936-67.044l-93.182,67.044H287.915z M34.079,176.058l24.632,50.762l90.735-28.821l-37.268-52.368L34.079,176.058z
							 M149.446,197.999l79.533,62.233l-39.643-107.315L149.446,197.999z M228.979,260.231l145.142,67.044L290.25,219.228
							L228.979,260.231z"/>
					</g>
				</g>
				<path style="fill:#223640;" d="M476.918,258.782c-0.385,0-0.761,0.041-1.125,0.113l-15.457-50.989
					c2.085-0.862,3.554-2.912,3.554-5.309c0-3.174-2.573-5.747-5.747-5.747c-1.506,0-2.866,0.592-3.891,1.541l-36.689-30.964
					c0.64-0.927,1.02-2.048,1.02-3.259c0-3.174-2.573-5.747-5.747-5.747c-2.632,0-4.827,1.78-5.508,4.194l-42.161-7.552
					c0.012-0.153,0.046-0.299,0.046-0.454c0-3.174-2.573-5.747-5.747-5.747c-1.177,0-2.269,0.357-3.18,0.963l-27.246-33.422
					c1.05-1.041,1.702-2.484,1.702-4.079c0-3.174-2.573-5.747-5.747-5.747c-2.081,0-3.887,1.117-4.895,2.773l-58.954-28.366
					c0.226-0.616,0.368-1.274,0.368-1.969c0-3.174-2.573-5.747-5.747-5.747s-5.747,2.573-5.747,5.747
					c0,0.176,0.036,0.342,0.052,0.514l-79.993,15.198c-0.741-2.317-2.887-4.006-5.449-4.006c-3.174,0-5.747,2.573-5.747,5.747
					c0,1.36,0.492,2.593,1.282,3.577l-44.204,41.292c-1.013-0.892-2.326-1.451-3.782-1.451c-3.174,0-5.747,2.573-5.747,5.747
					c0,0.523,0.092,1.02,0.223,1.502l-67.807,25.766c-0.941-1.891-2.873-3.202-5.128-3.202c-3.174,0-5.747,2.573-5.747,5.747
					c0,2.523,1.636,4.643,3.898,5.416l-17.339,73.587c-0.252-0.034-0.501-0.077-0.763-0.077c-3.174,0-5.747,2.573-5.747,5.747
					c0,3.174,2.573,5.747,5.747,5.747c1.022,0,1.967-0.289,2.798-0.756l29.309,42.043c-1.234,1.054-2.033,2.602-2.033,4.352
					c0,3.174,2.573,5.747,5.747,5.747c2.624,0,4.813-1.77,5.501-4.173l75.006,13.723c-0.013,0.159-0.048,0.312-0.048,0.475
					c0,3.174,2.573,5.747,5.747,5.747c2.983,0,5.406-2.281,5.691-5.189h140.736c0.285,2.908,2.708,5.189,5.691,5.189
					c2.983,0,5.406-2.281,5.691-5.189h74.646c0.285,2.908,2.708,5.189,5.691,5.189c2.983,0,5.406-2.281,5.691-5.189h71.451
					c0.285,2.908,2.708,5.189,5.691,5.189c3.174,0,5.747-2.573,5.747-5.747c0-2.364-1.429-4.391-3.469-5.273l16.649-51.86
					c0.393,0.085,0.798,0.135,1.216,0.135c3.174,0,5.747-2.573,5.747-5.747C482.665,261.355,480.092,258.782,476.918,258.782z
					 M456.278,321.578c-2.751,0.239-4.927,2.397-5.195,5.139h-71.451c-0.147-1.499-0.856-2.819-1.93-3.756l77.722-115.33
					c0.638,0.346,1.344,0.568,2.099,0.651L456.278,321.578z M374.296,321.564l-5.52-81.993c2.724-0.451,4.807-2.8,4.807-5.652
					c0-0.464-0.07-0.909-0.174-1.342l9.953-3.452l69.573-24.13c0.363,0.787,0.904,1.466,1.564,2.013l-77.706,115.305
					C376.047,321.883,375.203,321.62,374.296,321.564z M135.797,321.528c-0.485,0-0.948,0.078-1.397,0.191l-16.988-47.436
					c1.944-0.921,3.299-2.886,3.299-5.181c0-0.555-0.104-1.081-0.25-1.589l39.498-15.734c0.565,1.091,1.459,1.972,2.563,2.515
					l-25.25,67.448C136.798,321.617,136.31,321.528,135.797,321.528z M50.747,305.873l7.715-73.011c0.016,0,0.03,0.005,0.045,0.005
					c1.687,0,3.19-0.74,4.241-1.898l12.249,9.109l35.059,26.071c-0.522,0.866-0.841,1.869-0.841,2.954
					c0,0.953,0.254,1.839,0.665,2.63l-55.818,36.204C53.24,306.905,52.088,306.147,50.747,305.873z M258.635,83.966l62.584,87.177
					c-1.199,1.053-1.972,2.58-1.972,4.302c0,1.622,0.678,3.082,1.759,4.127l-27.645,34.836c-0.898-0.581-1.963-0.927-3.113-0.927
					c-1.208,0-2.326,0.376-3.251,1.013l-27.126-32.256c1.013-1.036,1.642-2.45,1.642-4.014c0-2.983-2.281-5.406-5.189-5.691V84.704
					C257.163,84.622,257.943,84.368,258.635,83.966z M324.995,181.192c1.07,0,2.06-0.312,2.917-0.821l36.105,49.28
					c-0.787,0.705-1.368,1.618-1.673,2.659l-66.399-12.572c0.015-0.171,0.052-0.336,0.052-0.511c0-1.622-0.678-3.081-1.759-4.126
					l27.645-34.836C322.781,180.846,323.846,181.192,324.995,181.192z M412.836,169.915c1.555,0,2.961-0.623,3.995-1.627
					l36.595,31.038c-0.645,0.929-1.029,2.054-1.029,3.271c0,0.464,0.07,0.91,0.174,1.342l-22.19,7.696l-57.337,19.886
					c-0.379-0.822-0.951-1.528-1.652-2.085l38.825-60.179C411.006,169.663,411.887,169.915,412.836,169.915z M114.964,263.355
					c-1.687,0-3.189,0.74-4.24,1.897l-47.308-35.18c0.522-0.865,0.84-1.868,0.84-2.953c0-0.416-0.049-0.82-0.133-1.212l80.05-25.634
					c0.472,1.092,1.279,1.995,2.284,2.612l-29.507,60.844C116.328,263.499,115.665,263.355,114.964,263.355z M253.462,183.482
					l-23.239,71.145c-0.402-0.089-0.816-0.143-1.244-0.143c-0.505,0-0.987,0.086-1.454,0.209l-35.812-96.8
					c1.137-0.553,2.055-1.465,2.62-2.594l55.914,21.409c-0.133,0.486-0.228,0.988-0.228,1.516
					C250.02,180.577,251.438,182.593,253.462,183.482z M185.865,157.396c0.944,0.68,2.095,1.092,3.347,1.092
					c0.506,0,0.987-0.086,1.454-0.209l35.811,96.8c-0.62,0.302-1.18,0.701-1.651,1.195l-70.542-55.198
					c0.568-0.891,0.908-1.943,0.908-3.078c0-1.519-0.6-2.89-1.562-3.917L185.865,157.396z M117.954,264.216l29.506-60.844
					c0.621,0.23,1.285,0.374,1.986,0.374c0.388,0,0.767-0.041,1.134-0.114l12.261,40.215c-2.081,0.864-3.546,2.913-3.546,5.307
					c0,0.555,0.104,1.081,0.251,1.589l-39.498,15.734C119.565,265.543,118.846,264.763,117.954,264.216z M165.043,243.406
					c-0.389,0-0.767,0.041-1.134,0.114l-12.261-40.215c0.745-0.309,1.403-0.775,1.951-1.35l70.542,55.197
					c-0.303,0.475-0.525,1-0.679,1.556l-52.714-9.134c0.01-0.142,0.043-0.278,0.043-0.422
					C170.79,245.979,168.217,243.406,165.043,243.406z M231.284,254.973l23.24-71.145c0.401,0.089,0.815,0.143,1.243,0.143
					c1.208,0,2.326-0.376,3.252-1.013l27.126,32.256c-1.013,1.036-1.642,2.45-1.642,4.014c0,0.983,0.27,1.894,0.704,2.703
					l-6.544,4.38l-45.263,30.291C232.83,255.907,232.117,255.339,231.284,254.973z M255.209,84.704v87.829
					c-2.007,0.196-3.699,1.409-4.563,3.132l-55.914-21.409c0.133-0.486,0.228-0.988,0.228-1.516c0-1.491-0.582-2.836-1.513-3.857
					l58.914-65.264C253.174,84.222,254.147,84.6,255.209,84.704z M251.533,82.871l-58.915,65.263
					c-0.955-0.708-2.126-1.141-3.406-1.141c-2.804,0-5.131,2.01-5.638,4.666l-65.652-6.059c-0.003-0.655-0.136-1.275-0.341-1.861
					l133.253-61.823C251.036,82.259,251.267,82.579,251.533,82.871z M183.469,152.771c0.008,1.506,0.604,2.866,1.559,3.887
					l-32.234,36.686c-0.944-0.68-2.094-1.092-3.347-1.092c-1.042,0-2.005,0.299-2.848,0.783l-30.663-43.087
					c0.951-0.828,1.635-1.948,1.881-3.236L183.469,152.771z M112.178,151.378c1.042,0,2.005-0.299,2.848-0.783l30.663,43.087
					c-1.21,1.054-1.99,2.587-1.99,4.317c0,0.416,0.049,0.82,0.133,1.211l-30.061,9.626l-49.99,16.008
					c-0.371-0.859-0.959-1.591-1.676-2.172L83.44,190.28l26.073-39.586C110.313,151.116,111.211,151.378,112.178,151.378z
					 M138.318,322.133l25.25-67.448c0.474,0.126,0.962,0.215,1.475,0.215c2.643,0,4.847-1.795,5.517-4.225l52.714,9.134
					c-0.01,0.142-0.043,0.278-0.043,0.422c0,1.052,0.304,2.026,0.797,2.874l-83.934,60.39
					C139.598,322.931,138.999,322.468,138.318,322.133z M140.747,324.402l83.934-60.39c1.053,1.196,2.578,1.967,4.298,1.967
					c1.253,0,2.404-0.412,3.348-1.093l30.861,35.107l20.541,23.367c-0.84,0.898-1.378,2.064-1.505,3.358H141.488
					C141.406,325.878,141.151,325.096,140.747,324.402z M287.915,321.528c-1.253,0-2.404,0.412-3.348,1.093l-51.402-58.473
					c0.289-0.309,0.536-0.653,0.752-1.02l31.976,14.77l102.666,47.423c-0.161,0.443-0.26,0.91-0.308,1.396h-74.646
					C293.321,323.809,290.898,321.528,287.915,321.528z M234.385,262.114c0.207-0.593,0.342-1.219,0.342-1.882
					c0-0.983-0.27-1.893-0.704-2.702l51.807-34.671c1.054,1.282,2.632,2.116,4.421,2.116c1.127,0,2.171-0.337,3.058-0.897
					l76.804,98.942c-0.418,0.377-0.778,0.81-1.071,1.294L234.385,262.114z M371.01,322.357l-76.82-98.963
					c0.729-0.69,1.261-1.569,1.551-2.558l66.399,12.573c-0.015,0.171-0.051,0.336-0.051,0.51c0,3.115,2.482,5.636,5.574,5.73
					l5.518,81.957C372.394,321.71,371.662,321.967,371.01,322.357z M407.134,163.714c-0.012,0.152-0.046,0.299-0.046,0.454
					c0,1.824,0.866,3.43,2.191,4.483l-38.825,60.179c-0.789-0.407-1.67-0.659-2.619-0.659c-1.07,0-2.059,0.312-2.917,0.821
					l-36.105-49.28c1.175-1.052,1.929-2.565,1.929-4.267c0-0.889-0.219-1.721-0.579-2.472l24.713-14.939
					c1.048,1.401,2.705,2.321,4.59,2.321c2.632,0,4.827-1.78,5.508-4.194L407.134,163.714z M355.421,150.528
					c-1.05,1.041-1.702,2.484-1.702,4.079c0,0.889,0.219,1.72,0.579,2.472l-24.713,14.939c-0.942-1.259-2.381-2.103-4.032-2.264
					v-51.741c0.961-0.094,1.859-0.399,2.622-0.907L355.421,150.528z M319.616,110.354c-0.226,0.616-0.368,1.274-0.368,1.968
					c0,2.983,2.281,5.406,5.189,5.691v51.741c-0.837,0.082-1.617,0.336-2.31,0.738l-62.584-87.177
					c0.438-0.384,0.815-0.827,1.12-1.327L319.616,110.354z M250.277,80.624c0.028,0.094,0.055,0.188,0.087,0.28l-133.253,61.823
					c-0.119-0.201-0.247-0.393-0.389-0.577l44.221-41.308c1,0.843,2.275,1.371,3.686,1.371c3.174,0,5.747-2.573,5.747-5.747
					c0-0.222-0.041-0.433-0.065-0.649L250.277,80.624z M107.051,148.177c0.369,0.742,0.892,1.385,1.53,1.903l-13.521,20.529
					l-33.886,51.448c-0.8-0.423-1.698-0.684-2.666-0.684c-0.692,0-1.347,0.142-1.962,0.366l-19.857-41.396
					c1.659-1.008,2.778-2.815,2.778-4.898c0-0.523-0.092-1.02-0.223-1.502L107.051,148.177z M32.957,181.115
					c0.252,0.034,0.501,0.077,0.763,0.077c0.692,0,1.347-0.142,1.962-0.366l19.857,41.396c-1.659,1.008-2.779,2.815-2.779,4.898
					c0,1.076,0.315,2.072,0.829,2.933l-35.566,26.233c-0.648-0.719-1.47-1.264-2.406-1.584L32.957,181.115z M17.483,264.47
					c1.234-1.054,2.033-2.602,2.033-4.352c0-1.076-0.315-2.072-0.83-2.933l35.566-26.233c0.806,0.895,1.874,1.548,3.099,1.799
					l-7.715,73.011c-0.016,0-0.03-0.005-0.046-0.005c-1.022,0-1.967,0.289-2.798,0.756L17.483,264.47z M55.29,311.978
					c0.013-0.159,0.048-0.312,0.048-0.475c0-0.954-0.254-1.839-0.665-2.631l55.818-36.203c1.053,1.319,2.655,2.18,4.474,2.18
					c0.485,0,0.948-0.078,1.397-0.191l16.987,47.436c-1.479,0.701-2.596,2.009-3.053,3.608L55.29,311.978z M457.989,321.662
					c-0.193-0.042-0.396-0.05-0.595-0.072l1.245-113.296c0.211-0.018,0.425-0.023,0.629-0.063l15.457,50.989
					c-2.085,0.862-3.555,2.912-3.555,5.309c0,2.364,1.429,4.39,3.469,5.273L457.989,321.662z"/>
			</g>
			<g style="opacity:0.1;">
				<g>
					<g>
						<g style="opacity:0.25;">
							<path style="fill:#CBCACA;" d="M740.247,87.895l-91.137,17.453l-52.451,49.165l77.157,7.285L740.247,87.895z
								 M897.315,173.049l-53.37-9.56l-34.47,20.837l-34.746,43.783l77.586,14.691L897.315,173.049z M858.601,336.156h82.653
								l1.369-124.678L858.601,336.156z M633.925,206.88l-34.482,71.104l20.833,58.173l29.246-78.122L633.925,206.88z
								 M772.394,336.156l-58.936-67.044l-93.182,67.044H772.394z M518.559,184.939l24.632,50.762l90.735-28.821l-37.268-52.368
								L518.559,184.939z M633.925,206.88l79.533,62.232l-39.644-107.315L633.925,206.88z M713.458,269.113l145.142,67.044
								l-83.871-108.047L713.458,269.113z"/>
						</g>
					</g>
					<path style="fill:#CBCACA;" d="M961.397,267.663c-0.385,0-0.761,0.041-1.125,0.113l-15.457-50.989
						c2.085-0.862,3.554-2.912,3.554-5.309c0-3.174-2.573-5.747-5.747-5.747c-1.506,0-2.866,0.592-3.891,1.541l-36.689-30.964
						c0.64-0.927,1.02-2.048,1.02-3.259c0-3.174-2.573-5.747-5.747-5.747c-2.632,0-4.827,1.78-5.508,4.194l-42.161-7.552
						c0.012-0.153,0.046-0.299,0.046-0.454c0-3.174-2.573-5.747-5.747-5.747c-1.177,0-2.269,0.357-3.18,0.963l-27.246-33.422
						c1.05-1.041,1.702-2.484,1.702-4.079c0-3.174-2.573-5.747-5.747-5.747c-2.081,0-3.887,1.117-4.895,2.773l-58.954-28.366
						c0.226-0.616,0.368-1.274,0.368-1.968c0-3.174-2.573-5.747-5.747-5.747s-5.747,2.573-5.747,5.747
						c0,0.176,0.036,0.342,0.052,0.514l-79.993,15.198c-0.741-2.317-2.887-4.006-5.449-4.006c-3.174,0-5.747,2.573-5.747,5.747
						c0,1.36,0.492,2.593,1.282,3.577l-44.204,41.292c-1.013-0.892-2.326-1.451-3.782-1.451c-3.174,0-5.747,2.573-5.747,5.747
						c0,0.523,0.092,1.02,0.223,1.502l-67.807,25.766c-0.941-1.891-2.873-3.202-5.128-3.202c-3.174,0-5.747,2.573-5.747,5.747
						c0,2.523,1.636,4.643,3.898,5.416l-17.339,73.587c-0.252-0.034-0.501-0.077-0.763-0.077c-3.174,0-5.747,2.573-5.747,5.747
						c0,3.174,2.573,5.747,5.747,5.747c1.022,0,1.967-0.289,2.798-0.756l29.309,42.043c-1.234,1.054-2.033,2.602-2.033,4.352
						c0,3.174,2.573,5.747,5.747,5.747c2.624,0,4.813-1.77,5.501-4.173l75.006,13.723c-0.013,0.159-0.048,0.312-0.048,0.475
						c0,3.174,2.573,5.747,5.747,5.747c2.983,0,5.406-2.281,5.691-5.189h140.736c0.285,2.908,2.708,5.189,5.691,5.189
						c2.983,0,5.406-2.281,5.691-5.189h74.646c0.285,2.908,2.708,5.189,5.691,5.189c2.983,0,5.406-2.281,5.691-5.189h71.451
						c0.285,2.908,2.708,5.189,5.691,5.189c3.174,0,5.747-2.573,5.747-5.747c0-2.364-1.429-4.391-3.469-5.273l16.649-51.86
						c0.393,0.085,0.798,0.135,1.216,0.135c3.174,0,5.747-2.573,5.747-5.747C967.144,270.236,964.571,267.663,961.397,267.663z
						 M940.757,330.459c-2.751,0.239-4.927,2.397-5.195,5.139h-71.451c-0.147-1.499-0.856-2.819-1.93-3.756l77.722-115.33
						c0.638,0.346,1.344,0.568,2.099,0.651L940.757,330.459z M858.775,330.445l-5.521-81.993c2.724-0.451,4.807-2.8,4.807-5.652
						c0-0.464-0.07-0.909-0.174-1.342l9.953-3.452l69.573-24.13c0.363,0.787,0.904,1.466,1.564,2.013l-77.706,115.305
						C860.527,330.765,859.683,330.501,858.775,330.445z M620.276,330.409c-0.485,0-0.948,0.078-1.397,0.191l-16.988-47.436
						c1.944-0.921,3.299-2.886,3.299-5.181c0-0.555-0.104-1.081-0.25-1.589l39.498-15.734c0.565,1.091,1.459,1.972,2.563,2.515
						l-25.25,67.448C621.278,330.498,620.789,330.409,620.276,330.409z M535.226,314.754l7.715-73.011
						c0.016,0,0.03,0.005,0.045,0.005c1.687,0,3.19-0.74,4.241-1.898l12.249,9.109l35.059,26.071
						c-0.522,0.866-0.841,1.869-0.841,2.954c0,0.953,0.254,1.839,0.665,2.63l-55.818,36.204
						C537.72,315.786,536.568,315.028,535.226,314.754z M743.115,92.847l62.584,87.177c-1.199,1.053-1.972,2.58-1.972,4.302
						c0,1.622,0.678,3.082,1.759,4.127l-27.645,34.836c-0.898-0.581-1.963-0.927-3.113-0.927c-1.208,0-2.326,0.376-3.251,1.013
						l-27.126-32.256c1.013-1.036,1.642-2.45,1.642-4.014c0-2.983-2.281-5.406-5.189-5.691V93.585
						C741.642,93.503,742.422,93.25,743.115,92.847z M809.475,190.073c1.07,0,2.06-0.312,2.917-0.821l36.105,49.28
						c-0.787,0.705-1.368,1.618-1.673,2.659l-66.399-12.572c0.015-0.171,0.052-0.336,0.052-0.511c0-1.622-0.678-3.081-1.759-4.126
						l27.645-34.836C807.26,189.727,808.325,190.073,809.475,190.073z M897.315,178.796c1.555,0,2.961-0.623,3.995-1.627
						l36.594,31.038c-0.645,0.929-1.029,2.054-1.029,3.271c0,0.464,0.07,0.91,0.174,1.342l-22.19,7.696l-57.337,19.886
						c-0.379-0.822-0.951-1.528-1.652-2.085l38.825-60.179C895.485,178.544,896.366,178.796,897.315,178.796z M599.443,272.237
						c-1.687,0-3.189,0.74-4.24,1.897l-47.308-35.18c0.522-0.865,0.84-1.868,0.84-2.953c0-0.416-0.049-0.82-0.133-1.212
						l80.05-25.634c0.472,1.092,1.279,1.995,2.284,2.612l-29.506,60.844C600.807,272.38,600.144,272.237,599.443,272.237z
						 M737.941,192.363l-23.239,71.145c-0.401-0.089-0.816-0.143-1.244-0.143c-0.505,0-0.987,0.086-1.454,0.209l-35.812-96.8
						c1.137-0.553,2.055-1.465,2.62-2.594l55.914,21.409c-0.133,0.486-0.228,0.988-0.228,1.516
						C734.499,189.458,735.917,191.474,737.941,192.363z M670.345,166.277c0.944,0.68,2.095,1.092,3.347,1.092
						c0.505,0,0.987-0.086,1.454-0.209l35.811,96.8c-0.62,0.302-1.18,0.701-1.651,1.195l-70.542-55.198
						c0.568-0.891,0.908-1.943,0.908-3.078c0-1.519-0.6-2.89-1.562-3.917L670.345,166.277z M602.433,273.097l29.506-60.844
						c0.621,0.23,1.285,0.374,1.986,0.374c0.388,0,0.767-0.041,1.134-0.114l12.261,40.215c-2.081,0.864-3.546,2.913-3.546,5.306
						c0,0.555,0.104,1.081,0.25,1.589l-39.498,15.734C604.044,274.425,603.325,273.644,602.433,273.097z M649.522,252.287
						c-0.389,0-0.767,0.041-1.134,0.114l-12.261-40.215c0.745-0.309,1.403-0.775,1.951-1.35l70.542,55.197
						c-0.303,0.475-0.525,1-0.679,1.556l-52.714-9.134c0.01-0.142,0.043-0.278,0.043-0.422
						C655.269,254.86,652.696,252.287,649.522,252.287z M715.763,263.854l23.24-71.145c0.401,0.089,0.815,0.143,1.243,0.143
						c1.208,0,2.326-0.376,3.252-1.013l27.126,32.256c-1.013,1.036-1.642,2.45-1.642,4.014c0,0.983,0.27,1.894,0.704,2.703
						l-6.544,4.38l-45.263,30.291C717.31,264.789,716.596,264.22,715.763,263.854z M739.688,93.585v87.829
						c-2.007,0.196-3.699,1.409-4.563,3.132l-55.914-21.409c0.133-0.486,0.228-0.988,0.228-1.516c0-1.491-0.582-2.836-1.513-3.857
						l58.914-65.264C737.653,93.103,738.626,93.481,739.688,93.585z M736.012,91.752l-58.915,65.263
						c-0.955-0.708-2.126-1.141-3.406-1.141c-2.804,0-5.132,2.01-5.638,4.666l-65.652-6.059c-0.003-0.655-0.136-1.275-0.341-1.861
						l133.253-61.823C735.515,91.141,735.746,91.46,736.012,91.752z M667.948,161.652c0.008,1.506,0.604,2.866,1.559,3.887
						l-32.234,36.686c-0.944-0.68-2.094-1.092-3.347-1.092c-1.042,0-2.005,0.299-2.848,0.783l-30.663-43.087
						c0.951-0.828,1.635-1.948,1.881-3.236L667.948,161.652z M596.658,160.26c1.042,0,2.005-0.299,2.848-0.783l30.663,43.087
						c-1.21,1.054-1.99,2.587-1.99,4.317c0,0.416,0.049,0.82,0.133,1.211l-30.061,9.626l-49.99,16.008
						c-0.371-0.859-0.959-1.591-1.676-2.172l21.334-32.391l26.073-39.586C594.792,159.998,595.69,160.26,596.658,160.26z
						 M622.797,331.015l25.25-67.448c0.474,0.126,0.962,0.215,1.475,0.215c2.643,0,4.847-1.795,5.517-4.225l52.714,9.134
						c-0.01,0.142-0.043,0.278-0.043,0.422c0,1.052,0.304,2.026,0.797,2.874l-83.934,60.39
						C624.078,331.812,623.478,331.35,622.797,331.015z M625.226,333.283l83.934-60.39c1.053,1.196,2.578,1.967,4.298,1.967
						c1.253,0,2.404-0.412,3.348-1.093l30.861,35.107l20.541,23.367c-0.84,0.898-1.378,2.064-1.505,3.358H625.967
						C625.885,334.759,625.63,333.977,625.226,333.283z M772.394,330.409c-1.253,0-2.404,0.412-3.348,1.093l-51.402-58.473
						c0.289-0.309,0.536-0.653,0.752-1.02l31.976,14.77l102.666,47.423c-0.161,0.443-0.26,0.91-0.308,1.396h-74.646
						C777.8,332.69,775.377,330.409,772.394,330.409z M718.864,270.995c0.207-0.593,0.342-1.219,0.342-1.882
						c0-0.983-0.27-1.893-0.704-2.702l51.807-34.671c1.054,1.282,2.632,2.116,4.421,2.116c1.127,0,2.171-0.337,3.058-0.897
						L854.59,331.9c-0.419,0.377-0.778,0.81-1.071,1.294L718.864,270.995z M855.489,331.238l-76.82-98.963
						c0.729-0.69,1.261-1.569,1.551-2.558l66.399,12.573c-0.015,0.171-0.051,0.336-0.051,0.51c0,3.115,2.482,5.636,5.574,5.73
						l5.518,81.957C856.873,330.591,856.141,330.848,855.489,331.238z M891.613,172.595c-0.012,0.152-0.046,0.299-0.046,0.454
						c0,1.824,0.866,3.43,2.191,4.483l-38.825,60.179c-0.789-0.407-1.67-0.659-2.619-0.659c-1.07,0-2.059,0.312-2.917,0.821
						l-36.105-49.28c1.175-1.052,1.929-2.565,1.929-4.267c0-0.889-0.219-1.721-0.579-2.472l24.713-14.939
						c1.048,1.401,2.705,2.321,4.59,2.321c2.632,0,4.827-1.78,5.508-4.194L891.613,172.595z M839.9,159.41
						c-1.05,1.041-1.702,2.484-1.702,4.079c0,0.889,0.219,1.72,0.579,2.472l-24.713,14.939c-0.942-1.259-2.381-2.103-4.032-2.264
						v-51.741c0.961-0.094,1.859-0.399,2.622-0.907L839.9,159.41z M804.096,119.235c-0.226,0.616-0.368,1.274-0.368,1.968
						c0,2.983,2.281,5.406,5.189,5.691v51.741c-0.837,0.082-1.617,0.336-2.31,0.738l-62.584-87.177
						c0.438-0.384,0.815-0.827,1.12-1.327L804.096,119.235z M734.757,89.505c0.028,0.094,0.055,0.188,0.087,0.28l-133.253,61.823
						c-0.119-0.201-0.247-0.393-0.389-0.577l44.221-41.308c1,0.843,2.275,1.371,3.686,1.371c3.174,0,5.747-2.573,5.747-5.747
						c0-0.222-0.041-0.433-0.065-0.649L734.757,89.505z M591.53,157.058c0.37,0.742,0.892,1.385,1.53,1.903l-13.521,20.529
						l-33.886,51.448c-0.8-0.423-1.698-0.684-2.666-0.684c-0.692,0-1.347,0.142-1.962,0.366l-19.857-41.396
						c1.659-1.008,2.778-2.815,2.778-4.898c0-0.523-0.092-1.02-0.223-1.502L591.53,157.058z M517.436,189.996
						c0.252,0.034,0.501,0.077,0.763,0.077c0.693,0,1.348-0.142,1.962-0.366l19.857,41.396c-1.659,1.008-2.779,2.815-2.779,4.898
						c0,1.076,0.315,2.072,0.829,2.933l-35.566,26.233c-0.648-0.719-1.47-1.264-2.406-1.584L517.436,189.996z M501.963,273.351
						c1.234-1.054,2.033-2.602,2.033-4.352c0-1.076-0.315-2.072-0.83-2.933l35.566-26.233c0.806,0.895,1.874,1.548,3.099,1.799
						l-7.715,73.011c-0.016,0-0.03-0.005-0.046-0.005c-1.022,0-1.967,0.289-2.798,0.756L501.963,273.351z M539.769,320.859
						c0.013-0.159,0.048-0.312,0.048-0.475c0-0.954-0.254-1.839-0.665-2.631l55.818-36.203c1.053,1.319,2.655,2.18,4.474,2.18
						c0.485,0,0.948-0.078,1.397-0.191l16.987,47.436c-1.479,0.701-2.596,2.009-3.053,3.608L539.769,320.859z M942.468,330.543
						c-0.193-0.042-0.396-0.05-0.595-0.072l1.245-113.296c0.211-0.018,0.425-0.023,0.629-0.063l15.457,50.989
						c-2.085,0.862-3.555,2.912-3.555,5.309c0,2.364,1.429,4.39,3.469,5.273L942.468,330.543z"/>
				</g>
			</g>
		</g>
		<g id="layout_1_">
		</g>
		<g id="layout">
		</g>
	</g>
</g>
<g id="content">
	<g id="cloud2">
		<g id="app2">
		</g>
		<g id="data2">
		</g>
	</g>
</g>
</svg>
