<?xml version="1.0" encoding="iso-8859-1"?>
<!-- Generator: Adobe Illustrator 17.1.0, SVG Export Plug-In . SVG Version: 6.00 Build 0)  -->
<!DOCTYPE svg PUBLIC "-//W3C//DTD SVG 1.1//EN" "http://www.w3.org/Graphics/SVG/1.1/DTD/svg11.dtd">
<svg version="1.1" xmlns="http://www.w3.org/2000/svg" xmlns:xlink="http://www.w3.org/1999/xlink" x="0px" y="0px"
	 viewBox="0 0 2421.255 626" style="enable-background:new 0 0 2421.255 626;" xml:space="preserve">
<symbol  id="app2_1_" viewBox="-36.698 -36.698 73.396 73.396">
	<path style="fill:#3A3A3A;" d="M36.65,1.91C37.753-19.866,19.866-37.753-1.909-36.65c-18.645,0.945-33.795,16.095-34.74,34.74
		C-37.753,19.865-19.865,37.753,1.91,36.649C20.555,35.705,35.705,20.555,36.65,1.91z"/>
	<g style="opacity:0.3;">
		<g>
			<g>
				<path style="fill:#2CAA63;" d="M18.752-10.887c0,0-1.165-6.509-6.652-6.509H5.291c0,0,3.54-1.721,6.421-1.721
					C18.147-19.117,18.752-10.887,18.752-10.887L18.752-10.887z"/>
			</g>
			<g>
				<path style="fill:#2CAA63;" d="M-16.248-10.887c0,0,1.165-6.509,6.652-6.509h6.809c0,0-3.54-1.721-6.421-1.721
					C-15.644-19.117-16.248-10.887-16.248-10.887L-16.248-10.887z"/>
			</g>
			<g>
				<path style="fill:#2CAA63;" d="M11.784,14.202c2.114,0,3.833-1.72,3.833-3.833v-21.066c0-2.114-1.72-3.833-3.833-3.833H-9.281
					c-2.114,0-3.833,1.72-3.833,3.833v21.066c0,2.114,1.72,3.833,3.833,3.833H11.784 M11.784,15.635H-9.281
					c-2.908,0-5.266-2.358-5.266-5.266v-21.066c0-2.909,2.358-5.266,5.266-5.266h21.066c2.908,0,5.266,2.358,5.266,5.266v21.066
					C17.051,13.277,14.693,15.635,11.784,15.635L11.784,15.635z"/>
				<path style="fill:#2CAA63;" d="M1.252-10.913c-5.927,0-10.749,4.822-10.749,10.749s4.822,10.749,10.749,10.749
					C7.178,10.585,12,5.763,12-0.164S7.178-10.913,1.252-10.913z M1.252,9.152c-5.137,0-9.316-4.179-9.316-9.316
					S-3.885-9.48,1.252-9.48c5.136,0,9.315,4.179,9.315,9.316S6.388,9.152,1.252,9.152z"/>
			</g>
		</g>
	</g>
</symbol>
<symbol  id="cloud2_1_" viewBox="-38.684 -38.684 77.368 77.368">
	<g id="app2_2_">
		<path style="fill:#3A3A3A;" d="M38.633,2.013c1.163-22.954-17.692-41.809-40.646-40.646c-19.654,0.996-35.624,16.966-36.62,36.62
			C-39.796,20.94-20.94,39.796,2.013,38.633C21.667,37.637,37.637,21.667,38.633,2.013z"/>
	</g>
	<g style="opacity:0.3;">
		<path style="fill:#2F938B;" d="M17.544-5.529h-27.696c-4.027,0-7.304,3.288-7.304,7.331c0.001,4.164,3.477,7.512,7.67,7.32
			c2.074,2.977,5.419,4.739,9.045,4.739c3.92,0,7.504-2.053,9.499-5.392c4.749,0.122,8.787-3.753,8.787-8.63V-5.529z M-15.846,1.802
			c0-3.155,2.554-5.722,5.694-5.722h26.087v3.76c0,3.752-3.029,7.366-8.094,6.957c-2.024,3.779-5.183,5.454-8.553,5.454
			c-3.228,0-6.13-1.473-8.258-4.829C-13.36,7.931-15.846,4.899-15.846,1.802z"/>
		<path style="fill:#2F938B;" d="M-10.152-13.577c-1.655,0-3.134,0.725-4.175,1.861c0,0-0.531,0.817-1.361,0.817
			c-1.056,0-0.646-0.817-0.646-0.817c1.291-2.076,3.57-3.471,6.182-3.471h27.696v1.61H-10.152z"/>
		<path style="fill:#2F938B;" d="M-10.152-8.748c-1.655,0-3.134,0.725-4.175,1.861c0,0-0.531,0.817-1.361,0.817
			c-1.056,0-0.646-0.817-0.646-0.817c1.291-2.076,3.57-3.471,6.182-3.471h27.696v1.61H-10.152z"/>
	</g>
</symbol>
<symbol  id="data2_1_" viewBox="-88.12 -79.682 176.241 176.241">
	<path style="fill:#3A3A3A;" d="M88.005,13.024c2.65-52.288-40.302-95.24-92.59-92.59c-44.771,2.269-81.15,38.648-83.419,83.419
		c-2.65,52.288,40.302,95.24,92.59,92.59C49.357,94.174,85.736,57.795,88.005,13.024z"/>
	<g style="opacity:0.3;">
		<path style="fill:#EF6624;" d="M0-36.587c-19.392,0-40,5.695-40,16.247c0,1.107,0.896,2.003,2.003,2.003
			c1.107,0,2.003-0.896,2.003-2.003c0-5.789,14.782-12.242,35.995-12.242c21.211,0,35.995,6.454,35.995,12.242
			c0,1.107,0.896,2.003,2.003,2.003c1.107,0,2.003-0.896,2.003-2.003C40-30.892,19.392-36.587,0-36.587z"/>
		<path style="fill:#EF6624;" d="M0-19.585c-19.392,0-40,5.695-40,16.251c0,1.107,0.896,2.003,2.003,2.003
			c1.107,0,2.003-0.896,2.003-2.003C-35.995-9.126-21.212-15.58,0-15.58c21.211,0,35.995,6.454,35.995,12.246
			c0,1.107,0.896,2.003,2.003,2.003C39.104-1.331,40-2.227,40-3.333C40-13.89,19.392-19.585,0-19.585z"/>
		<path style="fill:#EF6624;" d="M0-2.579c-19.392,0-40,5.695-40,16.247c0,1.107,0.896,2.003,2.003,2.003
			c1.107,0,2.003-0.896,2.003-2.003C-35.995,7.88-21.212,1.426,0,1.426c21.211,0,35.995,6.454,35.995,12.242
			c0,1.107,0.896,2.003,2.003,2.003c1.107,0,2.003-0.896,2.003-2.003C40,3.116,19.392-2.579,0-2.579z"/>
		<path style="fill:#EF6624;" d="M0,14.427c-19.392,0-40,5.695-40,16.247s20.608,16.247,40,16.247c19.392,0,40-5.695,40-16.247
			S19.392,14.427,0,14.427z M0,42.917c-21.212,0-35.995-6.454-35.995-12.242S-21.212,18.432,0,18.432
			c21.211,0,35.995,6.454,35.995,12.242S21.211,42.917,0,42.917z"/>
	</g>
</symbol>
<symbol  id="layout_4_" viewBox="-573.07 -321.891 1147.95 820.45">
	<path style="fill:#10506B;" d="M347.566-3.218"/>
	
		<use xlink:href="#app2_1_"  width="73.396" height="73.396" id="XMLID_18_" x="-36.698" y="-36.698" transform="matrix(1 0 0 1 -536.3722 372.4533)" style="overflow:visible;"/>
	
		<use xlink:href="#app2_1_"  width="73.396" height="73.396" id="XMLID_17_" x="-36.698" y="-36.698" transform="matrix(1 0 0 1 -147.7345 244.6072)" style="overflow:visible;"/>
	
		<use xlink:href="#data2_1_"  width="176.241" height="176.241" id="XMLID_16_" x="-88.12" y="-79.682" transform="matrix(1 0 0 1 -294.6829 402)" style="overflow:visible;"/>
	
		<use xlink:href="#data2_1_"  width="176.241" height="176.241" id="XMLID_15_" x="-88.12" y="-79.682" transform="matrix(0.4492 0 0 0.4492 535.2941 367.0619)" style="overflow:visible;"/>
	
		<use xlink:href="#cloud2_1_"  width="77.368" height="77.368" id="XMLID_14_" x="-38.684" y="-38.684" transform="matrix(1 0 0 1 -5.570797e-04 -283.2067)" style="overflow:visible;"/>
	
		<use xlink:href="#cloud2_1_"  width="77.368" height="77.368" id="XMLID_13_" x="-38.684" y="-38.684" transform="matrix(2.2506 0 0 2.2506 193.0962 293.7495)" style="overflow:visible;"/>
</symbol>
<g id="Layer_3">
	<g id="header">
		<g id="layout_1_">
		</g>
		<g id="layout">
		</g>
		<g id="layout_light">
			<g id="layout_3_">
			</g>
		</g>
		<g id="layout_2_">
		</g>
	</g>
</g>
<g id="content">
	<g id="cloud2">
		<g id="data2">
		</g>
	</g>
	<g id="app2">
	</g>
	<g style="opacity:0.5;">
		<g>
			<g style="opacity:0.25;">
				<path style="fill:#3A3A3A;" d="M586.73,26.546L376.407,66.823L255.361,180.284l178.06,16.813L586.73,26.546z M949.206,223.062
					L826.042,201l-79.549,48.087l-80.185,101.04l179.049,33.902L949.206,223.062z M859.863,599.475h190.743l3.16-287.727
					L859.863,599.475z M341.367,301.136l-79.577,164.09l48.078,134.249l67.492-180.286L341.367,301.136z M660.919,599.475
					l-136.01-154.721L309.867,599.475H660.919z M75.127,250.502l56.845,117.146l209.395-66.512l-86.005-120.852L75.127,250.502z
					 M341.367,301.136l183.543,143.618l-91.488-247.657L341.367,301.136z M524.909,444.754l334.954,154.721L666.308,350.127
					L524.909,444.754z"/>
			</g>
		</g>
		<path style="fill:#3A3A3A;" d="M1097.093,441.41c-0.889,0-1.755,0.095-2.595,0.262L1058.827,324
			c4.812-1.99,8.202-6.721,8.202-12.252c0-7.325-5.938-13.263-13.263-13.263c-3.476,0-6.614,1.367-8.979,3.556l-84.67-71.456
			c1.478-2.139,2.353-4.726,2.353-7.522c0-7.325-5.938-13.263-13.263-13.263c-6.074,0-11.139,4.107-12.71,9.678l-97.297-17.429
			c0.028-0.352,0.106-0.689,0.106-1.048c0-7.325-5.938-13.263-13.263-13.263c-2.715,0-5.236,0.823-7.338,2.223l-62.877-77.131
			c2.423-2.403,3.928-5.731,3.928-9.414c0-7.325-5.938-13.263-13.263-13.263c-4.802,0-8.969,2.577-11.297,6.399L599.143,31.088
			c0.521-1.423,0.85-2.94,0.85-4.543c0-7.325-5.938-13.263-13.263-13.263s-13.263,5.938-13.263,13.263
			c0,0.406,0.084,0.789,0.12,1.186L388.982,62.805c-1.71-5.347-6.661-9.244-12.576-9.244c-7.325,0-13.263,5.938-13.263,13.263
			c0,3.138,1.136,5.984,2.958,8.255l-102.012,95.291c-2.337-2.059-5.369-3.348-8.728-3.348c-7.325,0-13.263,5.938-13.263,13.263
			c0,1.207,0.213,2.355,0.516,3.466L86.132,243.212c-2.172-4.363-6.63-7.389-11.834-7.389c-7.325,0-13.263,5.938-13.263,13.263
			c0,5.823,3.777,10.715,8.995,12.498L30.016,431.406c-0.582-0.078-1.157-0.178-1.76-0.178c-7.325,0-13.263,5.938-13.263,13.263
			s5.938,13.263,13.263,13.263c2.358,0,4.539-0.667,6.458-1.745l67.638,97.025c-2.848,2.433-4.692,6.005-4.692,10.044
			c0,7.325,5.938,13.263,13.263,13.263c6.057,0,11.108-4.085,12.696-9.631l173.095,31.669c-0.031,0.367-0.111,0.72-0.111,1.096
			c0,7.325,5.938,13.263,13.263,13.263c6.884,0,12.476-5.263,13.133-11.974h324.786c0.657,6.711,6.249,11.974,13.133,11.974
			s12.476-5.263,13.133-11.974h172.264c0.657,6.711,6.249,11.974,13.133,11.974c6.884,0,12.476-5.263,13.133-11.974h164.891
			c0.657,6.711,6.25,11.974,13.133,11.974c7.325,0,13.263-5.938,13.263-13.263c0-5.455-3.299-10.133-8.006-12.169l38.422-119.681
			c0.906,0.196,1.842,0.311,2.807,0.311c7.325,0,13.263-5.938,13.263-13.263S1104.417,441.41,1097.093,441.41z M1049.462,586.327
			c-6.349,0.552-11.369,5.531-11.989,11.86H872.582c-0.339-3.459-1.976-6.506-4.455-8.669l179.364-266.153
			c1.473,0.798,3.101,1.312,4.843,1.501L1049.462,586.327z M860.266,586.294l-12.74-189.221c6.287-1.04,11.094-6.462,11.094-13.044
			c0-1.071-0.161-2.098-0.401-3.096l22.968-7.966l160.559-55.687c0.838,1.817,2.086,3.384,3.61,4.645L866.028,588.023
			C864.308,587.032,862.36,586.424,860.266,586.294z M309.867,586.212c-1.118,0-2.187,0.18-3.224,0.441L267.44,477.182
			c4.487-2.126,7.612-6.66,7.612-11.956c0-1.281-0.239-2.495-0.578-3.667l91.152-36.31c1.304,2.518,3.367,4.551,5.915,5.804
			l-58.271,155.655C312.178,586.417,311.051,586.212,309.867,586.212z M113.592,550.084l17.806-168.492
			c0.036,0,0.069,0.011,0.105,0.011c3.894,0,7.361-1.708,9.787-4.38l28.268,21.021l80.908,60.166
			c-1.206,1.998-1.94,4.313-1.94,6.816c0,2.2,0.587,4.244,1.535,6.07l-128.814,83.549
			C119.346,552.466,116.688,550.717,113.592,550.084z M593.349,37.976l144.43,201.184c-2.767,2.431-4.55,5.954-4.55,9.927
			c0,3.744,1.565,7.112,4.06,9.523l-63.798,80.394c-2.073-1.341-4.531-2.139-7.184-2.139c-2.788,0-5.369,0.868-7.504,2.338
			l-62.601-74.439c2.339-2.391,3.79-5.655,3.79-9.263c0-6.884-5.264-12.477-11.975-13.133V39.679
			C589.95,39.49,591.75,38.904,593.349,37.976z M746.492,262.35c2.469,0,4.753-0.719,6.733-1.895l83.322,113.727
			c-1.817,1.626-3.157,3.734-3.861,6.137l-153.234-29.013c0.035-0.395,0.119-0.775,0.119-1.179c0-3.744-1.565-7.111-4.06-9.523
			l63.798-80.394C741.381,261.552,743.84,262.35,746.492,262.35z M949.206,236.325c3.589,0,6.832-1.439,9.22-3.754l84.451,71.629
			c-1.49,2.144-2.375,4.74-2.375,7.548c0,1.072,0.161,2.1,0.401,3.098l-51.208,17.76l-132.32,45.891
			c-0.875-1.898-2.195-3.527-3.813-4.813l89.599-138.88C944.983,235.744,947.017,236.325,949.206,236.325z M261.789,451.963
			c-3.893,0-7.36,1.707-9.786,4.379l-109.177-81.188c1.205-1.997,1.939-4.312,1.939-6.814c0-0.961-0.114-1.893-0.308-2.797
			l184.736-59.158c1.089,2.521,2.953,4.604,5.272,6.027l-68.094,140.412C264.938,452.295,263.407,451.963,261.789,451.963z
			 M581.41,267.635L527.78,431.822c-0.927-0.205-1.882-0.331-2.871-0.331c-1.167,0-2.278,0.199-3.355,0.481l-82.645-223.391
			c2.624-1.277,4.741-3.38,6.047-5.987l129.037,49.407c-0.308,1.121-0.526,2.279-0.526,3.498
			C573.467,260.93,576.738,265.583,581.41,267.635z M425.413,207.433c2.179,1.57,4.834,2.52,7.725,2.52
			c1.167,0,2.278-0.199,3.356-0.481l82.644,223.392c-1.431,0.697-2.723,1.619-3.809,2.758L352.534,308.239
			c1.311-2.057,2.096-4.483,2.096-7.103c0-3.505-1.385-6.669-3.606-9.04L425.413,207.433z M268.69,453.949l68.094-140.412
			c1.434,0.53,2.965,0.862,4.583,0.862c0.896,0,1.77-0.094,2.617-0.264l28.296,92.807c-4.802,1.995-8.183,6.722-8.183,12.246
			c0,1.281,0.239,2.495,0.578,3.667l-91.153,36.31C272.407,457.013,270.747,455.211,268.69,453.949z M377.36,405.925
			c-0.897,0-1.771,0.094-2.618,0.264l-28.296-92.807c1.719-0.714,3.238-1.788,4.502-3.114l162.794,127.383
			c-0.699,1.096-1.212,2.308-1.566,3.592l-121.652-21.079c0.024-0.328,0.098-0.641,0.098-0.975
			C390.622,411.863,384.684,405.925,377.36,405.925z M530.229,432.619l53.632-164.186c0.926,0.205,1.881,0.33,2.869,0.33
			c2.788,0,5.369-0.868,7.504-2.338l62.6,74.439c-2.338,2.391-3.789,5.654-3.789,9.263c0,2.268,0.622,4.37,1.626,6.237
			l-15.102,10.107l-104.455,69.905C533.797,434.775,532.151,433.463,530.229,432.619z M585.442,39.679v202.688
			c-4.632,0.453-8.537,3.252-10.53,7.229l-129.037-49.407c0.308-1.121,0.526-2.279,0.526-3.498c0-3.44-1.344-6.545-3.492-8.902
			l135.96-150.613C580.745,38.565,582.991,39.439,585.442,39.679z M576.959,35.448L440.998,186.06
			c-2.205-1.633-4.906-2.632-7.86-2.632c-6.47,0-11.842,4.638-13.011,10.768l-151.51-13.983c-0.008-1.512-0.314-2.942-0.787-4.294
			L575.345,33.247C575.811,34.037,576.345,34.774,576.959,35.448z M419.882,196.761c0.019,3.476,1.393,6.615,3.598,8.969
			l-74.389,84.663c-2.179-1.57-4.833-2.52-7.724-2.52c-2.404,0-4.627,0.689-6.572,1.807l-70.763-99.435
			c2.194-1.911,3.774-4.495,4.341-7.468L419.882,196.761z M255.361,193.547c2.404,0,4.628-0.689,6.572-1.808l70.762,99.435
			c-2.791,2.431-4.592,5.97-4.592,9.962c0,0.961,0.113,1.893,0.307,2.795l-69.373,22.215l-115.364,36.942
			c-0.857-1.982-2.213-3.672-3.869-5.014l49.233-74.751l60.17-91.356C251.056,192.943,253.128,193.547,255.361,193.547z
			 M315.684,587.609l58.271-155.655c1.093,0.291,2.22,0.497,3.405,0.497c6.1,0,11.185-4.142,12.733-9.75l121.652,21.078
			c-0.024,0.328-0.098,0.64-0.098,0.974c0,2.428,0.701,4.674,1.84,6.632L319.786,590.751
			C318.64,589.449,317.257,588.382,315.684,587.609z M321.291,592.843l193.701-139.365c2.431,2.761,5.95,4.539,9.918,4.539
			c2.892,0,5.547-0.951,7.727-2.522l71.22,81.018l47.403,53.925c-1.939,2.073-3.181,4.764-3.473,7.75H323
			C322.811,596.25,322.223,594.445,321.291,592.843z M660.919,586.212c-2.892,0-5.547,0.951-7.726,2.522L534.568,453.792
			c0.668-0.714,1.238-1.507,1.736-2.354l73.792,34.085l236.93,109.442c-0.371,1.022-0.6,2.101-0.71,3.223H674.052
			C673.396,591.476,667.803,586.212,660.919,586.212z M537.384,449.098c0.477-1.368,0.788-2.814,0.788-4.344
			c0-2.267-0.622-4.369-1.625-6.236l119.558-80.012c2.432,2.958,6.074,4.884,10.202,4.884c2.601,0,5.009-0.777,7.057-2.07
			l177.244,228.334c-0.966,0.87-1.795,1.868-2.472,2.986L537.384,449.098z M852.682,588.125L675.4,359.741
			c1.682-1.591,2.911-3.621,3.579-5.904l153.233,29.014c-0.035,0.394-0.119,0.774-0.119,1.178c0,7.188,5.727,13.006,12.863,13.222
			l12.735,189.137C855.877,586.632,854.188,587.225,852.682,588.125z M936.049,222.014c-0.028,0.352-0.106,0.689-0.106,1.048
			c0,4.209,1.999,7.916,5.057,10.345l-89.599,138.88c-1.82-0.939-3.855-1.521-6.044-1.521c-2.469,0-4.752,0.719-6.732,1.894
			l-83.322-113.727c2.713-2.428,4.453-5.92,4.453-9.847c0-2.052-0.505-3.971-1.337-5.705l57.032-34.475
			c2.419,3.233,6.243,5.355,10.592,5.355c6.074,0,11.139-4.107,12.71-9.678L936.049,222.014z M816.707,191.585
			c-2.423,2.403-3.928,5.732-3.928,9.414c0,2.051,0.505,3.97,1.336,5.704l-57.032,34.475c-2.173-2.905-5.494-4.853-9.304-5.225
			V116.548c2.217-0.217,4.289-0.92,6.05-2.093L816.707,191.585z M734.079,98.872c-0.521,1.422-0.85,2.939-0.85,4.542
			c0,6.883,5.263,12.476,11.974,13.133v119.406c-1.933,0.189-3.733,0.775-5.332,1.704L595.443,36.473
			c1.01-0.887,1.881-1.909,2.584-3.063L734.079,98.872z M574.061,30.263c0.064,0.217,0.126,0.434,0.201,0.647L266.746,173.582
			c-0.274-0.465-0.571-0.906-0.898-1.332l102.052-95.328c2.308,1.946,5.25,3.165,8.506,3.165c7.325,0,13.263-5.938,13.263-13.263
			c0-0.513-0.094-1-0.151-1.498L574.061,30.263z M243.527,186.159c0.853,1.713,2.058,3.197,3.531,4.391l-31.204,47.377l-78.2,118.73
			c-1.846-0.975-3.919-1.579-6.152-1.579c-1.598,0-3.11,0.327-4.528,0.845l-45.825-95.532c3.829-2.326,6.412-6.497,6.412-11.304
			c0-1.207-0.213-2.354-0.516-3.465L243.527,186.159z M72.537,262.172c0.582,0.078,1.157,0.177,1.76,0.177
			c1.598,0,3.11-0.327,4.529-0.845l45.826,95.531c-3.829,2.326-6.413,6.497-6.413,11.305c0,2.484,0.726,4.781,1.914,6.768
			l-82.077,60.54c-1.496-1.66-3.392-2.917-5.552-3.655L72.537,262.172z M36.827,454.536c2.848-2.433,4.692-6.005,4.692-10.044
			c0-2.484-0.726-4.781-1.914-6.769l82.077-60.54c1.86,2.065,4.324,3.573,7.152,4.151l-17.805,168.492
			c-0.036,0-0.069-0.01-0.105-0.01c-2.358,0-4.539,0.667-6.458,1.745L36.827,454.536z M124.076,564.174
			c0.031-0.367,0.11-0.72,0.11-1.095c0-2.201-0.587-4.245-1.536-6.071l128.814-83.549c2.43,3.043,6.127,5.031,10.324,5.031
			c1.119,0,2.187-0.18,3.225-0.441l39.202,109.471c-3.413,1.617-5.99,4.637-7.046,8.325L124.076,564.174z M1053.41,586.522
			c-0.445-0.096-0.913-0.116-1.374-0.166l2.873-261.46c0.486-0.042,0.982-0.053,1.452-0.146l35.672,117.671
			c-4.813,1.99-8.203,6.721-8.203,12.252c0,5.455,3.298,10.132,8.005,12.169L1053.41,586.522z"/>
	</g>
	<g style="opacity:0.1;">
		<g>
			<g>
				<g style="opacity:0.25;">
					<path style="fill:#CBCACA;" d="M1887.793,26.546L1677.47,66.823l-121.046,113.461l178.06,16.813L1887.793,26.546z
						 M2250.269,223.062L2127.104,201l-79.549,48.087l-80.185,101.04l179.049,33.902L2250.269,223.062z M2160.926,599.475h190.743
						l3.16-287.727L2160.926,599.475z M1642.43,301.136l-79.578,164.09l48.078,134.249l67.492-180.286L1642.43,301.136z
						 M1961.982,599.475l-136.01-154.721L1610.93,599.475H1961.982z M1376.19,250.502l56.845,117.146l209.395-66.512
						l-86.006-120.852L1376.19,250.502z M1642.43,301.136l183.542,143.618l-91.488-247.657L1642.43,301.136z M1825.972,444.754
						l334.954,154.721l-193.555-249.348L1825.972,444.754z"/>
				</g>
			</g>
			<path style="fill:#CBCACA;" d="M2398.156,441.41c-0.889,0-1.755,0.095-2.595,0.262L2359.89,324
				c4.812-1.99,8.202-6.721,8.202-12.252c0-7.325-5.938-13.263-13.263-13.263c-3.476,0-6.614,1.367-8.979,3.556l-84.67-71.456
				c1.478-2.139,2.353-4.726,2.353-7.522c0-7.325-5.938-13.263-13.263-13.263c-6.074,0-11.138,4.107-12.71,9.678l-97.297-17.429
				c0.028-0.352,0.106-0.689,0.106-1.048c0-7.325-5.938-13.263-13.263-13.263c-2.715,0-5.235,0.823-7.338,2.223l-62.877-77.131
				c2.424-2.403,3.928-5.731,3.928-9.414c0-7.325-5.938-13.263-13.263-13.263c-4.802,0-8.969,2.577-11.297,6.399l-136.052-65.462
				c0.521-1.423,0.85-2.94,0.85-4.543c0-7.325-5.938-13.263-13.263-13.263c-7.325,0-13.263,5.938-13.263,13.263
				c0,0.406,0.084,0.789,0.12,1.186l-184.604,35.074c-1.71-5.347-6.661-9.244-12.576-9.244c-7.325,0-13.263,5.938-13.263,13.263
				c0,3.138,1.136,5.984,2.958,8.255l-102.012,95.291c-2.337-2.059-5.369-3.348-8.728-3.348c-7.325,0-13.263,5.938-13.263,13.263
				c0,1.207,0.213,2.355,0.516,3.466l-156.482,59.462c-2.172-4.363-6.63-7.389-11.834-7.389c-7.325,0-13.263,5.938-13.263,13.263
				c0,5.823,3.777,10.715,8.995,12.498l-40.014,169.821c-0.582-0.078-1.157-0.178-1.76-0.178c-7.325,0-13.263,5.938-13.263,13.263
				s5.938,13.263,13.263,13.263c2.358,0,4.539-0.667,6.458-1.745l67.638,97.025c-2.848,2.433-4.692,6.005-4.692,10.044
				c0,7.325,5.938,13.263,13.263,13.263c6.057,0,11.108-4.085,12.696-9.631l173.095,31.669c-0.03,0.367-0.11,0.72-0.11,1.096
				c0,7.325,5.938,13.263,13.263,13.263c6.884,0,12.476-5.263,13.133-11.974h324.786c0.657,6.711,6.249,11.974,13.133,11.974
				c6.884,0,12.476-5.263,13.133-11.974h172.264c0.657,6.711,6.249,11.974,13.133,11.974s12.476-5.263,13.133-11.974h164.891
				c0.657,6.711,6.25,11.974,13.133,11.974c7.325,0,13.263-5.938,13.263-13.263c0-5.455-3.299-10.133-8.006-12.169l38.423-119.681
				c0.906,0.196,1.842,0.311,2.807,0.311c7.325,0,13.263-5.938,13.263-13.263S2405.48,441.41,2398.156,441.41z M2350.525,586.327
				c-6.349,0.552-11.369,5.531-11.989,11.86h-164.891c-0.338-3.459-1.976-6.506-4.455-8.669l179.365-266.153
				c1.473,0.798,3.101,1.312,4.843,1.501L2350.525,586.327z M2161.329,586.294l-12.74-189.221
				c6.287-1.04,11.094-6.462,11.094-13.044c0-1.071-0.161-2.098-0.401-3.096l22.968-7.966l160.559-55.687
				c0.838,1.817,2.086,3.384,3.61,4.645l-179.328,266.097C2165.371,587.032,2163.423,586.424,2161.329,586.294z M1610.93,586.212
				c-1.118,0-2.187,0.18-3.224,0.441l-39.203-109.471c4.487-2.126,7.612-6.66,7.612-11.956c0-1.281-0.239-2.495-0.578-3.667
				l91.152-36.31c1.304,2.518,3.367,4.551,5.916,5.804l-58.271,155.655C1613.241,586.417,1612.115,586.212,1610.93,586.212z
				 M1414.655,550.084l17.806-168.492c0.036,0,0.069,0.011,0.105,0.011c3.894,0,7.361-1.708,9.787-4.38l28.268,21.021l80.908,60.166
				c-1.206,1.998-1.94,4.313-1.94,6.816c0,2.2,0.587,4.244,1.535,6.07l-128.814,83.549
				C1420.409,552.466,1417.751,550.717,1414.655,550.084z M1894.412,37.976l144.43,201.184c-2.767,2.431-4.55,5.954-4.55,9.927
				c0,3.744,1.565,7.112,4.06,9.523l-63.798,80.394c-2.073-1.341-4.531-2.139-7.184-2.139c-2.788,0-5.369,0.868-7.504,2.338
				l-62.601-74.439c2.339-2.391,3.79-5.655,3.79-9.263c0-6.884-5.264-12.477-11.975-13.133V39.679
				C1891.013,39.49,1892.813,38.904,1894.412,37.976z M2047.555,262.35c2.469,0,4.753-0.719,6.733-1.895l83.322,113.727
				c-1.817,1.626-3.157,3.734-3.862,6.137l-153.234-29.013c0.035-0.395,0.119-0.775,0.119-1.179c0-3.744-1.565-7.111-4.06-9.523
				l63.798-80.394C2042.444,261.552,2044.903,262.35,2047.555,262.35z M2250.269,236.325c3.589,0,6.832-1.439,9.22-3.754
				l84.451,71.629c-1.49,2.144-2.375,4.74-2.375,7.548c0,1.072,0.161,2.1,0.401,3.098l-51.208,17.76l-132.32,45.891
				c-0.875-1.898-2.195-3.527-3.813-4.813l89.599-138.88C2246.046,235.744,2248.08,236.325,2250.269,236.325z M1562.852,451.963
				c-3.893,0-7.36,1.707-9.786,4.379l-109.177-81.188c1.205-1.997,1.939-4.312,1.939-6.814c0-0.961-0.114-1.893-0.308-2.797
				l184.736-59.158c1.089,2.521,2.953,4.604,5.272,6.027l-68.094,140.412C1566.001,452.295,1564.47,451.963,1562.852,451.963z
				 M1882.473,267.635l-53.631,164.187c-0.927-0.205-1.882-0.331-2.87-0.331c-1.167,0-2.278,0.199-3.355,0.481l-82.645-223.391
				c2.624-1.277,4.741-3.38,6.047-5.987l129.037,49.407c-0.308,1.121-0.526,2.279-0.526,3.498
				C1874.53,260.93,1877.801,265.583,1882.473,267.635z M1726.476,207.433c2.179,1.57,4.834,2.52,7.725,2.52
				c1.167,0,2.278-0.199,3.356-0.481l82.644,223.392c-1.431,0.697-2.723,1.619-3.809,2.758l-162.794-127.383
				c1.311-2.057,2.096-4.483,2.096-7.103c0-3.505-1.385-6.669-3.606-9.04L1726.476,207.433z M1569.753,453.949l68.094-140.412
				c1.434,0.53,2.965,0.862,4.583,0.862c0.896,0,1.77-0.094,2.617-0.264l28.296,92.807c-4.802,1.995-8.183,6.722-8.183,12.246
				c0,1.281,0.239,2.495,0.578,3.667l-91.153,36.31C1573.47,457.013,1571.81,455.211,1569.753,453.949z M1678.423,405.925
				c-0.897,0-1.771,0.094-2.618,0.264l-28.296-92.807c1.719-0.714,3.238-1.788,4.502-3.114l162.794,127.383
				c-0.699,1.096-1.212,2.308-1.566,3.592l-121.652-21.079c0.024-0.328,0.098-0.641,0.098-0.975
				C1691.685,411.863,1685.747,405.925,1678.423,405.925z M1831.292,432.619l53.632-164.186c0.926,0.205,1.881,0.33,2.869,0.33
				c2.788,0,5.369-0.868,7.504-2.338l62.6,74.439c-2.338,2.391-3.789,5.654-3.789,9.263c0,2.268,0.622,4.37,1.626,6.237
				l-15.102,10.107l-104.455,69.905C1834.86,434.775,1833.214,433.463,1831.292,432.619z M1886.505,39.679v202.688
				c-4.632,0.453-8.537,3.252-10.53,7.229l-129.037-49.407c0.308-1.121,0.526-2.279,0.526-3.498c0-3.44-1.344-6.545-3.492-8.902
				l135.96-150.613C1881.808,38.565,1884.054,39.439,1886.505,39.679z M1878.022,35.448L1742.061,186.06
				c-2.205-1.633-4.906-2.632-7.86-2.632c-6.47,0-11.842,4.638-13.011,10.768l-151.51-13.983c-0.008-1.512-0.314-2.942-0.787-4.294
				l307.515-142.673C1876.874,34.037,1877.408,34.774,1878.022,35.448z M1720.945,196.761c0.019,3.476,1.393,6.615,3.598,8.969
				l-74.389,84.663c-2.179-1.57-4.833-2.52-7.724-2.52c-2.404,0-4.627,0.689-6.572,1.807l-70.763-99.435
				c2.194-1.911,3.774-4.495,4.341-7.468L1720.945,196.761z M1556.424,193.547c2.404,0,4.628-0.689,6.572-1.808l70.762,99.435
				c-2.792,2.431-4.592,5.97-4.592,9.962c0,0.961,0.114,1.893,0.307,2.795l-69.373,22.215l-115.364,36.942
				c-0.856-1.982-2.213-3.672-3.869-5.014l49.233-74.751l60.17-91.356C1552.119,192.943,1554.191,193.547,1556.424,193.547z
				 M1616.747,587.609l58.271-155.655c1.093,0.291,2.22,0.497,3.405,0.497c6.1,0,11.185-4.142,12.733-9.75l121.652,21.078
				c-0.024,0.328-0.098,0.64-0.098,0.974c0,2.428,0.701,4.674,1.84,6.632l-193.701,139.365
				C1619.703,589.449,1618.32,588.382,1616.747,587.609z M1622.354,592.843l193.701-139.365c2.431,2.761,5.95,4.539,9.918,4.539
				c2.892,0,5.547-0.951,7.727-2.522l71.22,81.018l47.403,53.925c-1.939,2.073-3.181,4.764-3.473,7.75h-324.786
				C1623.874,596.25,1623.286,594.445,1622.354,592.843z M1961.982,586.212c-2.892,0-5.547,0.951-7.726,2.522l-118.624-134.942
				c0.668-0.714,1.238-1.507,1.736-2.354l73.792,34.085l236.93,109.442c-0.371,1.022-0.6,2.101-0.71,3.223h-172.264
				C1974.459,591.476,1968.866,586.212,1961.982,586.212z M1838.447,449.098c0.477-1.368,0.788-2.814,0.788-4.344
				c0-2.267-0.622-4.369-1.625-6.236l119.558-80.012c2.432,2.958,6.074,4.884,10.202,4.884c2.601,0,5.009-0.777,7.057-2.07
				l177.244,228.334c-0.966,0.87-1.795,1.868-2.472,2.986L1838.447,449.098z M2153.745,588.125l-177.283-228.384
				c1.682-1.591,2.911-3.621,3.579-5.904l153.234,29.014c-0.035,0.394-0.119,0.774-0.119,1.178c0,7.188,5.727,13.006,12.863,13.222
				l12.735,189.137C2156.94,586.632,2155.251,587.225,2153.745,588.125z M2237.112,222.014c-0.028,0.352-0.106,0.689-0.106,1.048
				c0,4.209,1.999,7.916,5.057,10.345l-89.599,138.88c-1.82-0.939-3.854-1.521-6.044-1.521c-2.469,0-4.752,0.719-6.732,1.894
				l-83.322-113.727c2.713-2.428,4.453-5.92,4.453-9.847c0-2.052-0.505-3.971-1.337-5.705l57.032-34.475
				c2.419,3.233,6.243,5.355,10.592,5.355c6.074,0,11.139-4.107,12.71-9.678L2237.112,222.014z M2117.77,191.585
				c-2.423,2.403-3.928,5.732-3.928,9.414c0,2.051,0.505,3.97,1.336,5.704l-57.032,34.475c-2.173-2.905-5.494-4.853-9.304-5.225
				V116.548c2.217-0.217,4.289-0.92,6.05-2.093L2117.77,191.585z M2035.142,98.872c-0.521,1.422-0.85,2.939-0.85,4.542
				c0,6.883,5.263,12.476,11.974,13.133v119.406c-1.933,0.189-3.733,0.775-5.332,1.704L1896.506,36.473
				c1.01-0.887,1.881-1.909,2.584-3.063L2035.142,98.872z M1875.124,30.263c0.064,0.217,0.126,0.434,0.201,0.647l-307.515,142.673
				c-0.274-0.465-0.571-0.906-0.898-1.332l102.052-95.328c2.308,1.946,5.25,3.165,8.505,3.165c7.325,0,13.263-5.938,13.263-13.263
				c0-0.513-0.094-1-0.151-1.498L1875.124,30.263z M1544.59,186.159c0.853,1.713,2.058,3.197,3.531,4.391l-31.204,47.377
				l-78.2,118.73c-1.846-0.975-3.918-1.579-6.152-1.579c-1.598,0-3.109,0.327-4.528,0.845l-45.825-95.532
				c3.829-2.326,6.412-6.497,6.412-11.304c0-1.207-0.213-2.354-0.516-3.465L1544.59,186.159z M1373.6,262.172
				c0.582,0.078,1.157,0.177,1.76,0.177c1.598,0,3.11-0.327,4.529-0.845l45.826,95.531c-3.829,2.326-6.413,6.497-6.413,11.305
				c0,2.484,0.726,4.781,1.914,6.768l-82.077,60.54c-1.495-1.66-3.392-2.917-5.552-3.655L1373.6,262.172z M1337.89,454.536
				c2.848-2.433,4.692-6.005,4.692-10.044c0-2.484-0.726-4.781-1.914-6.769l82.077-60.54c1.86,2.065,4.324,3.573,7.152,4.151
				l-17.805,168.492c-0.036,0-0.069-0.01-0.105-0.01c-2.358,0-4.539,0.667-6.458,1.745L1337.89,454.536z M1425.139,564.174
				c0.031-0.367,0.11-0.72,0.11-1.095c0-2.201-0.587-4.245-1.536-6.071l128.814-83.549c2.43,3.043,6.127,5.031,10.324,5.031
				c1.119,0,2.187-0.18,3.225-0.441l39.203,109.471c-3.413,1.617-5.99,4.637-7.046,8.325L1425.139,564.174z M2354.473,586.522
				c-0.445-0.096-0.913-0.116-1.374-0.166l2.873-261.46c0.486-0.042,0.982-0.053,1.452-0.146l35.672,117.671
				c-4.813,1.99-8.203,6.721-8.203,12.252c0,5.455,3.298,10.132,8.005,12.169L2354.473,586.522z"/>
		</g>
	</g>
</g>
</svg>
